#!OML:ASF H:\Not Pregnant\Project 1\Capture day 1\Session 1\non-pregnant.ASF
:FULLY-SPECIFIED
:DEGREES
819
root 19.1978 15.4147 25.7466 187.836 -60.7802 -177.541
lowerback -2.63894 0.198821 1.2529
upperback -6.45893 0.050752 0.808412
thorax -5.19472 -0.123263 0.145029
lowerneck 1.94354 -1.60867 -29.384
upperneck 6.42346 -6.60997 40.1842
head 3.91468 -4.19194 21.2442
rclavicle -4.5472e-015 3.77691e-015
rhumerus -70.3833 -33.6203 -43.4207
rradius 30.3755
rwrist -0.137682
rhand -18.9661 -22.1356
rfingers 7.12502
rthumb 7.33786 -51.9884
lclavicle -4.5472e-015 3.77691e-015
lhumerus -41.3069 -5.2252 81.1612
lradius 54.5034
lwrist 45.6562
lhand -24.7831 -12.1302
lfingers 7.12502
lthumb 1.72105 17.8426
rfemur -34.0711 11.1684 16.8698
rtibia 54.9089
rfoot -23.2107 11.0994
rtoes -24.5156
lfemur -19.772 -3.67267 -17.5722
ltibia 36.6914
lfoot -25.2944 2.84413
ltoes -32.2028
820
root 19.2116 15.4371 25.7706 188.041 -60.2412 -177.454
lowerback -3.07321 0.362436 1.31354
upperback -6.61462 0.243342 0.779735
thorax -5.11097 -0.039315 0.0794627
lowerneck 2.00425 -1.63374 -29.4243
upperneck 6.59929 -6.71355 40.1184
head 3.99025 -4.25108 21.2188
rclavicle -5.03919e-014 -1.31198e-014
rhumerus -70.1612 -33.3516 -44.279
rradius 29.9354
rwrist 0.0262516
rhand -18.3782 -22.485
rfingers 7.12502
rthumb 7.90535 -52.3172
lclavicle -5.03919e-014 -1.31198e-014
lhumerus -41.7179 -5.32867 81.3479
lradius 54.3416
lwrist 45.9082
lhand -24.7657 -12.0759
lfingers 7.12502
lthumb 1.73783 17.8968
rfemur -33.5589 10.7052 17.4531
rtibia 54.18
rfoot -23.3012 11.5472
rtoes -24.7063
lfemur -19.922 -3.63332 -17.626
ltibia 36.4191
lfoot -25.0884 3.21358
ltoes -31.4207
821
root 19.2263 15.4546 25.7942 188.245 -59.7088 -177.348
lowerback -3.50597 0.528623 1.38519
upperback -6.77216 0.438151 0.758958
thorax -5.02992 0.0450244 0.0178774
lowerneck 2.06334 -1.65887 -29.478
upperneck 6.74319 -6.80367 40.0482
head 4.05259 -4.30261 21.1925
rclavicle -2.36802e-014 -5.56597e-015
rhumerus -69.8259 -32.9901 -45.3304
rradius 29.663
rwrist 0.134396
rhand -17.7597 -22.8441
rfingers 7.12502
rthumb 8.50221 -52.6529
lclavicle -2.36802e-014 -5.56597e-015
lhumerus -42.1237 -5.45389 81.5582
lradius 54.1884
lwrist 46.1407
lhand -24.6705 -11.9998
lfingers 7.12502
lthumb 1.82978 17.9721
rfemur -33.0895 10.2272 18.0105
rtibia 53.4949
rfoot -23.2571 11.8557
rtoes -24.7351
lfemur -20.1614 -3.57614 -17.659
ltibia 36.2771
lfoot -24.9483 3.56538
ltoes -30.5801
822
root 19.2421 15.4674 25.8177 188.452 -59.1882 -177.229
lowerback -3.93019 0.700167 1.46982
upperback -6.93227 0.638761 0.738775
thorax -4.95616 0.131254 -0.0484371
lowerneck 2.13323 -1.68335 -29.5346
upperneck 6.84604 -6.88042 39.974
head 4.09619 -4.3474 21.1618
rclavicle -1.05654e-013 -3.8763e-014
rhumerus -69.3857 -32.5437 -46.5609
rradius 29.5205
rwrist 0.198869
rhand -17.1262 -23.1624
rfingers 7.12502
rthumb 9.11357 -52.9455
lclavicle -1.05654e-013 -3.8763e-014
lhumerus -42.5254 -5.61854 81.7904
lradius 54.0471
lwrist 46.3407
lhand -24.4935 -11.8995
lfingers 7.12502
lthumb 2.00074 18.0708
rfemur -32.6573 9.73326 18.5388
rtibia 52.8438
rfoot -23.0418 12.0392
rtoes -24.4178
lfemur -20.4856 -3.49854 -17.6764
ltibia 36.2575
lfoot -24.8668 3.90545
ltoes -29.7563
823
root 19.2591 15.4761 25.8412 188.662 -58.6862 -177.103
lowerback -4.33407 0.873784 1.56905
upperback -7.09582 0.840996 0.717008
thorax -4.89711 0.217131 -0.122767
lowerneck 2.21087 -1.70579 -29.5923
upperneck 6.91274 -6.94255 39.8968
head 4.12235 -4.38455 21.1272
rclavicle -9.08197e-015 3.37934e-015
rhumerus -68.8498 -32.015 -47.9578
rradius 29.493
rwrist 0.229704
rhand -16.5126 -23.3885
rfingers 7.12502
rthumb 9.70557 -53.1449
lclavicle -9.08197e-015 3.37934e-015
lhumerus -42.9242 -5.81432 82.0388
lradius 53.9164
lwrist 46.4895
lhand -24.2468 -11.7777
lfingers 7.12502
lthumb 2.23901 18.1903
rfemur -32.2534 9.23302 19.0365
rtibia 52.2111
rfoot -22.6959 12.0845
rtoes -23.6874
lfemur -20.8837 -3.41384 -17.6796
ltibia 36.3454
lfoot -24.8306 4.24852
ltoes -29.0199
